<?xml version="1.0" standalone="no"?><!DOCTYPE svg PUBLIC "-//W3C//DTD SVG 1.1//EN" "http://www.w3.org/Graphics/SVG/1.1/DTD/svg11.dtd"><svg t="1620661459969" class="icon" viewBox="0 0 1024 1024" version="1.1" xmlns="http://www.w3.org/2000/svg" p-id="19355" xmlns:xlink="http://www.w3.org/1999/xlink" width="200" height="200"><defs><style type="text/css"></style></defs><path d="M513.024 885.9648c-207.9744 0-377.1392-169.1648-377.1392-377.1392s169.1648-377.1392 377.1392-377.1392 377.1392 169.1648 377.1392 377.1392-169.1648 377.1392-377.1392 377.1392z m0-713.3184c-185.3952 0-336.1792 150.8352-336.1792 336.1792 0 185.3952 150.784 336.1792 336.1792 336.1792s336.1792-150.8352 336.1792-336.1792c0-185.344-150.784-336.1792-336.1792-336.1792z" fill="#888888" p-id="19356"></path><path d="M513.024 587.0592c-82.6368 0-149.9136-67.2256-149.9136-149.9136S430.336 287.232 513.024 287.232s149.9136 67.2256 149.9136 149.9136-67.2768 149.9136-149.9136 149.9136z m0-258.816c-60.0576 0-108.9536 48.8448-108.9536 108.9536s48.8448 108.9536 108.9536 108.9536 108.9536-48.8448 108.9536-108.9536-48.896-108.9536-108.9536-108.9536z" fill="#888888" p-id="19357"></path><path d="M261.6832 768.0512c-2.1504 0-4.352-0.3584-6.5024-1.0752a20.49536 20.49536 0 0 1-12.9536-25.9072 284.98944 284.98944 0 0 1 270.7456-194.9696c122.7776 0 231.5264 78.1312 270.592 194.4576 3.584 10.7008-2.1504 22.3232-12.9024 25.9584-10.752 3.584-22.3232-2.1504-25.9584-12.9024-33.4336-99.6352-126.5664-166.5536-231.7312-166.5536a244.1216 244.1216 0 0 0-231.8848 167.0144 20.40832 20.40832 0 0 1-19.4048 13.9776z" fill="#888888" p-id="19358"></path></svg>