<?xml version="1.0" standalone="no"?><!DOCTYPE svg PUBLIC "-//W3C//DTD SVG 1.1//EN" "http://www.w3.org/Graphics/SVG/1.1/DTD/svg11.dtd"><svg t="1620661979728" class="icon" viewBox="0 0 1024 1024" version="1.1" xmlns="http://www.w3.org/2000/svg" p-id="20165" xmlns:xlink="http://www.w3.org/1999/xlink" width="200" height="200"><defs><style type="text/css"></style></defs><path d="M806.2464 184.3712h-116.1728c-9.2672-40.704-45.6704-71.168-89.088-71.168H438.9376c-43.4688 0-79.8208 30.5152-89.088 71.168H232.8576c-28.2112 0-51.2 22.9888-51.2 51.2v623.4624c0 28.2112 22.9888 51.2 51.2 51.2h573.44c28.2112 0 51.2-22.9888 51.2-51.2V235.5712c-0.0512-28.2112-22.9888-51.2-51.2512-51.2z m-417.792 20.224c0-27.8528 22.6304-50.4832 50.4832-50.4832h162.048c27.8528 0 50.4832 22.6304 50.4832 50.4832v2.3552c0 27.8528-22.6304 50.4832-50.4832 50.4832H438.9376c-27.8528 0-50.4832-22.6304-50.4832-50.4832v-2.3552z m428.032 654.4384c0 5.632-4.608 10.24-10.24 10.24h-573.44c-5.632 0-10.24-4.608-10.24-10.24V235.5712c0-5.632 4.608-10.24 10.24-10.24h116.5312c8.4992 41.6768 45.4656 73.1136 89.6 73.1136h162.048c44.1344 0 81.0496-31.4368 89.6-73.1136h115.6608c5.632 0 10.24 4.608 10.24 10.24v623.4624z" fill="#13227a" p-id="20166"></path><path d="M683.52 575.5392H354.5088c-11.3152 0-20.48 9.1648-20.48 20.48s9.1648 20.48 20.48 20.48h328.96c11.3152 0 20.48-9.1648 20.48-20.48s-9.1136-20.48-20.4288-20.48zM354.5088 468.9408h204.6976c11.3152 0 20.48-9.1648 20.48-20.48s-9.1648-20.48-20.48-20.48H354.5088c-11.3152 0-20.48 9.1648-20.48 20.48s9.1648 20.48 20.48 20.48zM683.52 723.0464H354.5088c-11.3152 0-20.48 9.1648-20.48 20.48s9.1648 20.48 20.48 20.48h328.96c11.3152 0 20.48-9.1648 20.48-20.48s-9.1136-20.48-20.4288-20.48z" fill="#13227a" p-id="20167"></path></svg>